<?xml version="1.0" encoding="utf-8"?>
<!-- Generator: Adobe Illustrator 21.0.0, SVG Export Plug-In . SVG Version: 6.00 Build 0)  -->
<svg version="1.1" id="Layer_1" xmlns="http://www.w3.org/2000/svg" xmlns:xlink="http://www.w3.org/1999/xlink" x="0px" y="0px"
	 viewBox="0 0 64 64" style="enable-background:new 0 0 64 64;" xml:space="preserve">
<style type="text/css">
	.st0{clip-path:url(#SVGID_2_);fill:none;stroke:#FFFFFF;stroke-width:0.5;}
</style>
<g>
	<defs>
		<rect id="SVGID_1_" x="15.3" y="0.3" width="32.9" height="63"/>
	</defs>
	<clipPath id="SVGID_2_">
		<use xlink:href="#SVGID_1_"  style="overflow:visible;"/>
	</clipPath>
	<path class="st0" d="M24.4,6.4c1.9,0,3.5,0,5.3,0.4c1.5,0.4,3.3,1.1,4.8,1.1c0.9,0,1.6,0.5,2.5,0.5c1.2,0.1,2.6-0.4,3.7-0.8
		c0.4-0.1,0.8-0.5,1.3-0.6c0.5-0.2,1.3-0.3,1.8-0.6c0.5-0.3,1-1,1.6-1.3c0.8-0.4,1.4,0.1,1.9-0.9c0.2-0.5,0.2-0.4-0.1-0.9
		c-0.4-0.7-0.6-0.5-1.3-0.7c-0.5-0.1-0.8-0.6-1.3-0.7c-0.3-0.1-0.5-0.1-0.8,0c-0.5-0.1-0.7-0.4-1.2-0.5c-0.9-0.2-1.9-0.3-2.8-0.6
		c-0.9-0.3-1.4-0.2-2.2,0.4c-0.7,0.5-1.4,0.8-2.1,0.9c-0.2,0-0.4,0-0.7,0c-0.1,0.1-0.2,0.3-0.4,0.4c-0.4,0.1-0.9-0.1-1.3,0.1
		c-0.2,0.1-0.4,0.3-0.5,0.5c-0.3,0.2-0.4,0.1-0.8,0.2c-0.5,0.2-0.8,0.5-1.2,0.7c-1.8,0.9-3.7,1.4-5.4,2.3"/>
	<path class="st0" d="M47.4,5.1c0,0.9,0.3,1.4,0.3,2.3c0,1,0.1,1.7,0.3,2.7c0.1,0.8,0,1.6,0,2.4c0,0.9-0.2,1.5-0.3,2.2
		c-0.4,0-0.7,0.3-0.8,0.7c-0.6,0-0.8,0.7-1.3,0.8c-0.4,0.1-1,0-1.4,0.2c-0.2,0.1-0.3,0.4-0.5,0.5c-0.3,0.1-0.5,0-0.7,0
		c-0.4,0.1-0.8,0.2-1.2,0.3c0,0.1-0.1,0.3-0.1,0.4c-0.2,0-0.4,0.1-0.7,0.1c0,0.7-0.8,0.8-1.3,1c-0.1,0-0.7,0.2-0.8,0.2
		c-0.2,0.1-0.3,0.3-0.5,0.5c-0.4,0.2-1.1,0.4-1.3,0.8c-0.2,0.4,0,1.4,0,1.8c0,1.3,0.5,2.4,0.5,3.7c0,0.7-0.2,1.1,0.5,1.1
		c0.4,0,0.4-0.2,0.7-0.3c0.3,0,0.5,0.1,0.8,0c0.8-0.1,1.2-0.6,1.3,0.7c0,0.6,0,1.2,0,1.8c0,0.9,0.3,2.8,0,3.6
		c-0.2,0.4-0.7,0.7-1.1,0.8c-0.4,0.1-0.7,0-1,0.2c-0.3,0.1-0.6,0.4-0.8,0.6c-0.5,0.3-1.4,0.2-1.7,0.7c-0.2,0.5,0.1,1.2,0,1.7
		c-0.1,0-0.3,0-0.4,0.1c-0.4,1.6,0,3.7,0,5.4c0,1.7,0.4,3,0.5,4.6c0,0.9,0.4,1.8,0.3,2.8c0,0.3,0,0.6-0.3,0.8c-0.1,0.1-0.4,0-0.5,0
		c-0.1,0.1-0.3,0.3-0.4,0.4c-0.6,0.3-1.3,0.3-1.9,0.6c-0.5,0.3-2,1.1-2,1.8"/>
	<path class="st0" d="M21.1,17.8c0,1.8-0.3,3.5-0.3,5.3c0,1.7,0.3,3.4,0.3,5.1c0,0.9,0,1.9,0,2.8c0,1.1,0.3,2.2,0.5,3.3
		c0.2,1.6,0.5,3.2,0.8,4.8c0.2,1.3,0.2,2.9,0.1,4.1c-0.1,0.6-0.4,1.1-0.5,1.7c-0.1,0.5,0,1.1,0,1.6c0,1.2,0,2.4,0,3.6
		c0,0.5,0.1,0.9,0.2,1.3c0.1,0.2,0,0.4,0.1,0.6c0.2,0.3,0.5,0.3,0.5,0.8c1.5,0.4,2.6-0.5,4-0.5c0.6,0,1.5-0.2,2.1,0
		c0.4,0.1,0.5,0.6,1,0.5c0.3-0.1,0.4-1,0.4-1.3c0.3-1.6,0.2-3.8-0.1-5.4c-0.4-1.8-0.3-3.7-0.3-5.6c0-3.9,0.2-7.8,0-11.7
		c0-0.9-0.5-1.7-0.5-2.7c0-0.8,0.2-1.5,0.3-2.3c0.1-1.3,0-2.7,0-4.1"/>
	<path class="st0" d="M24.6,7.1c-0.9,0-1.4-0.3-2.3-0.3c-1,0-1.8,0.2-2.7,0.3c0,0.5-0.3,0.8-0.8,0.8c0,0.2,0,0.4-0.1,0.7
		c-1.2,0.1-0.7,2-0.7,2.8c0,1.1-0.3,2.8,0.3,3.8c0.5,0.9,1.9,1.7,2.8,2c0.6,0.2,1.1,0.2,1.7,0.3c0.6,0.1,1.1,0.3,1.8,0.3
		c0.6-0.1,1.1-0.3,1.5-0.7c0.6-0.5,0.8-1.1,1.3-1.6c0.8-1,0.8-2.7,0.8-4c0-1.5,0.1-2.6-1-3.6c-0.2-0.2-0.1-0.3-0.3-0.5
		c-0.2-0.2-0.5-0.2-0.8-0.3c-0.6-0.1-1.2,0-1.8,0"/>
	<path class="st0" d="M35.5,8.6c-1.1-0.1-2,0.7-2.8,1.3c-0.4,0.3-0.6,0.4-0.8,1c-0.1,0.2-0.1,0.3-0.2,0.6c-0.1,0.4-0.3,0.9-0.5,1.3
		c-0.2,0.7,0.1,1,0.3,1.6c0.1,0.3,0.2,0.7,0.3,0.9c0.1,0.5,0.3,0.7,0.5,1.1c0.1,0.2,0.1,0.5,0.2,0.7c0.1,0.3,0.4,0.4,0.5,0.7
		c0.1,0.2,0.1,0.5,0.3,0.7c0.2,0.3,0.6,0.2,0.6,0.8c1.5,0.4,3.7,0.2,4.8-0.7c0.3-0.2,0.6-0.4,0.8-0.7c0.4-0.5,0.5-1,0.8-1.6
		c0.1-0.2,0.3-0.3,0.4-0.5c0.1-0.3,0.1-0.7,0.2-1.1c0.2-0.5,0.4-0.9,0.3-1.5c-0.1-1-0.6-1.6-1.2-2.3c-0.7-0.7-0.9-1.4-1.7-1.8
		c-0.6-0.4-0.7-0.5-1.4-0.5C36.5,8.6,36.1,8.6,35.5,8.6h-3.8"/>
	<path class="st0" d="M27.1,54.3c0,1.9-0.2,3.8,0.2,5.6c0.1,0.6,0.5,1.7,0.3,2.3c-0.3,0.8-2,0.4-2.8,0.4"/>
	<path class="st0" d="M34.7,53v3.3c0,0.7-0.1,1.4,0,2.1c0.1,0.4,0.1,1.2,0.2,1.5c0.1,0.4,0.4,0.5,0.5,0.9c0,0.2,0,0.3,0,0.5
		c0.1,0.3,0.5,0.6,0.5,0.8c0.1,1.2-2.2,0.8-3,0.8"/>
	<path class="st0" d="M20,21.6c0.1,0.7-0.4,1.6-0.7,2.2c-0.5,0.9-1,1.8-1.5,2.8c-0.6,1.1-0.6,2.3-0.8,3.5c-0.1,1.1-0.4,2.5-0.7,3.5
		c-0.1,0.4-0.4,0.9-0.4,1.3c-0.1,0.6,0.2,1.7-0.3,2"/>
	<path class="st0" d="M40.1,20.8c0.1,1.4,1.4,2.5,2.1,3.6c1.1,1.7,2,3.4,2.9,5.2c0.6,1.2,0.9,2.4,1.1,3.7c0.1,0.9,0.1,1.8,0.1,2.7"
		/>
	<path class="st0" d="M23.8,13.7c-0.9,0-2.2-0.1-1.8,1.3c0.1,0.5-0.1,0.3,0.4,0.5c0.1,0,0.7,0,0.8-0.1c0.4-0.5-0.6-1.1-1-1.2
		c-1.8-0.6-1.5,1.6-0.5,2.3c0.8,0.6,3.6,0.8,3-1c-1-0.3-1.8,0.3-2.8,0.5c-1.6,0.4-0.1-0.5-0.2-1.4c0-0.2,0-0.2,0,0"/>
	<path class="st0" d="M36,16.2c-0.5-0.1-1.1,0.1-1,0.7c0.8,0.2,1.8,0,2.4-0.7c-0.3-0.1-0.7-0.1-1.1-0.2c-0.5-0.2-1.1-0.7-1.6-0.6
		c-0.4,1.2,0,2.1,1,2.8c1.6,1,0.6-1.5,0.5-2.3c-0.7-0.3-1.8,0.7-2.3,1"/>
</g>
</svg>
